<?xml version="1.0" ?><svg id="Layer_1" style="enable-background:new 0 0 48 48;" version="1.1" viewBox="0 0 48 48" xml:space="preserve" xmlns="http://www.w3.org/2000/svg" xmlns:xlink="http://www.w3.org/1999/xlink"><g><path d="M36.9,12c-0.4-1.7-2-3-3.9-3s-3.4,1.3-3.9,3H2v2h27.1c0.4,1.7,2,3,3.9,3s3.4-1.3,3.9-3H46v-2H36.9z M33,15   c-1.1,0-2-0.9-2-2s0.9-2,2-2s2,0.9,2,2S34.1,15,33,15z"/><path d="M33,31c-1.9,0-3.4,1.3-3.9,3H2v2h27.1c0.4,1.7,2,3,3.9,3s3.4-1.3,3.9-3H46v-2h-9.1C36.4,32.3,34.9,31,33,31z M33,37   c-1.1,0-2-0.9-2-2s0.9-2,2-2s2,0.9,2,2S34.1,37,33,37z"/><path d="M15,20c-1.9,0-3.4,1.3-3.9,3H2v2h9.1c0.4,1.7,2,3,3.9,3s3.4-1.3,3.9-3H46v-2H18.9C18.4,21.3,16.9,20,15,20z M15,26   c-1.1,0-2-0.9-2-2c0-1.1,0.9-2,2-2s2,0.9,2,2C17,25.1,16.1,26,15,26z"/></g></svg>