<svg xmlns="http://www.w3.org/2000/svg" width="1855.42" height="512.501" viewBox="0 0 1855.42 512.501">
    <g id="Logo" transform="translate(-513 -512)">
        <path d="M569,512.5H517.969L273.382,88.576l-15.674,27.338L458.553,473.863H0L142.159,227.819l25.151,44.834L76.183,430.122H293.431L129.037,135.962l26.244-43.741L344.1,430.191h39L174.965,58.322l25.88-44.106,31.712,56.5L273.747,0Z"
              transform="translate(513 512)" fill="#8257e6"/>
        <path d="M168.795,0h40.176L121.365-195.3H81.189L-6.417,0h39.9L50.22-36.828H152.334ZM137.547-71.145H65.007l36.27-83.142Zm234.918-92.07C357.678-193.347,326.151-202,295.74-202c-35.991.279-75.609,16.74-75.609,56.916,0,43.8,36.828,54.405,76.725,59.148,25.947,2.79,45.2,10.323,45.2,28.737,0,21.2-21.762,29.3-44.919,29.3-23.715,0-46.314-9.486-54.963-30.969l-30.69,15.9c14.508,35.712,45.2,47.988,85.1,47.988C340.1,5.022,378.6-13.671,378.6-57.2c0-46.593-37.944-57.2-78.678-62.217-23.436-2.79-43.524-7.533-43.524-24.552,0-14.508,13.113-25.947,40.455-25.947,21.2,0,39.618,10.6,46.314,21.762ZM457.56,0h36.828V-161.82h61.938V-195.3h-160.7v33.48H457.56ZM670.437-199.206C602.919-199.206,570-147.591,570-96.255S601.8,4.464,670.437,4.464s99.6-50.5,100.161-101C771.156-147.591,737.676-199.206,670.437-199.206Zm0,33.48c46.035,0,64.449,36.828,63.891,69.75C733.77-63.891,716.472-29.3,670.437-29.3S607.1-63.612,606.267-95.7C605.43-128.619,624.4-165.726,670.437-165.726ZM797.661-195.3V0H934.929V-34.038H834.489V-195.3ZM997.7,0V-72.261h97.929V-106.3H997.7v-53.289h103.509v-35.433H960.876V0Zm226.548-199.206c-67.518,0-100.44,51.615-100.44,102.951S1155.618,4.464,1224.252,4.464s99.6-50.5,100.161-101C1324.971-147.591,1291.491-199.206,1224.252-199.206Zm0,33.48c46.035,0,64.449,36.828,63.891,69.75-.558,32.085-17.856,66.681-63.891,66.681s-63.333-34.317-64.17-66.4C1159.245-128.619,1178.217-165.726,1224.252-165.726Z"
              transform="translate(1044 855)" fill="#e1e1e6"/>
    </g>
</svg>
