<?xml version="1.0" ?><svg viewBox="0 0 512 512" xmlns="http://www.w3.org/2000/svg"><title/><g id="Badge"><path d="M313.8816,343.6682a7.968,7.968,0,0,1-3.7227-.9219L256.0027,314.27l-54.16,28.4765a8.0008,8.0008,0,0,1-11.6093-8.43l10.3437-60.3125-43.8164-42.711a7.9977,7.9977,0,0,1,4.4336-13.6406l60.5547-8.8047,27.0781-54.8672c2.7031-5.4687,11.6484-5.4687,14.3516,0l27.0781,54.8672,60.5508,8.8047a7.9977,7.9977,0,0,1,4.4336,13.6406l-43.8164,42.711,10.3437,60.3125a8.0063,8.0063,0,0,1-7.8867,9.3515ZM179.5378,231.1526l35.2227,34.3359a8.0116,8.0116,0,0,1,2.3008,7.0782l-8.3164,48.4765L252.28,298.1526a7.9473,7.9473,0,0,1,7.4453,0l43.5313,22.8906-8.3125-48.4765a8.0116,8.0116,0,0,1,2.3008-7.0782l35.2187-34.3359-48.6719-7.0781a7.9992,7.9992,0,0,1-6.0234-4.375l-21.7656-44.1016L234.2371,219.7a7.9992,7.9992,0,0,1-6.0235,4.375Z"/><path d="M256.0027,400.801c-79.8438,0-144.8008-64.9609-144.8008-144.8047S176.1589,111.2,256.0027,111.2s144.8008,64.9531,144.8008,144.7968S335.8464,400.801,256.0027,400.801Zm0-273.6015A128.8008,128.8008,0,1,0,384.8035,255.9963,128.9477,128.9477,0,0,0,256.0027,127.2Z"/><path d="M295.8855,459.551a28.932,28.932,0,0,1-14.1953-3.7343l-19.3633-10.8829a12.929,12.929,0,0,0-12.6484,0l-19.375,10.8829a28.84,28.84,0,0,1-37.8477-8.625l-12.75-18.2188a13.1328,13.1328,0,0,0-11.3789-5.4766l-22.2031,1.3672a28.7652,28.7652,0,0,1-30.3164-24.1953l-3.5821-21.9375a12.834,12.834,0,0,0-7.8984-9.8906l-20.5625-8.3438A28.8249,28.8249,0,0,1,66.9089,325.52l6.2852-21.3125a12.9824,12.9824,0,0,0-2.8047-12.3047L55.4636,275.387a28.8355,28.8355,0,0,1-.0039-38.7735L70.3933,220.09a13.0115,13.0115,0,0,0,2.8047-12.3125l-6.2891-21.3125a28.8327,28.8327,0,0,1,16.8555-34.9766l20.582-8.3515a12.9885,12.9885,0,0,0,7.8868-9.875l3.5859-21.9453a28.7563,28.7563,0,0,1,30.32-24.1954l22.2031,1.375a12.8549,12.8549,0,0,0,11.3711-5.4843L192.46,64.8088a28.8163,28.8163,0,0,1,37.8555-8.6171l19.3594,10.875a13.032,13.032,0,0,0,12.66,0L281.698,56.1838a28.8391,28.8391,0,0,1,37.8477,8.6172L332.3,83.02a12.9385,12.9385,0,0,0,11.3671,5.4765l22.211-1.3671a28.9125,28.9125,0,0,1,30.3164,24.1953L399.78,133.27a12.9956,12.9956,0,0,0,7.8867,9.8828l20.57,8.3437a28.829,28.829,0,0,1,16.8593,34.9844l-6.2851,21.3047a12.9807,12.9807,0,0,0,2.8008,12.3047l14.9257,16.5156a28.84,28.84,0,0,1,.0039,38.7735L441.616,291.9026a12.9933,12.9933,0,0,0-2.8086,12.3125l6.2851,21.3125a28.8213,28.8213,0,0,1-16.8554,34.9766l-20.5782,8.3515a12.9924,12.9924,0,0,0-7.8906,9.8828l-3.582,21.9375a28.8759,28.8759,0,0,1-30.3242,24.1953l-22.1954-1.3671a12.9015,12.9015,0,0,0-11.3828,5.4843l-12.7382,18.1953A28.8322,28.8322,0,0,1,295.8855,459.551Zm-39.8828-32.25a28.96,28.96,0,0,1,14.168,3.68L289.53,441.8635a12.8566,12.8566,0,0,0,16.9063-3.8515l12.7422-18.2032a29.1748,29.1748,0,0,1,25.4765-12.2734l22.1953,1.3672a12.8408,12.8408,0,0,0,13.5469-10.8047l3.582-21.9375a29.089,29.089,0,0,1,17.6641-22.1328l20.5742-8.3516a12.8719,12.8719,0,0,0,7.5313-15.6172l-6.2852-21.3125a29.0928,29.0928,0,0,1,6.2813-27.57L444.6667,264.66l.004-.0078a12.8851,12.8851,0,0,0-.004-17.32l-14.9218-16.5078a29.09,29.09,0,0,1-6.2774-27.57l6.2852-21.3047a12.8758,12.8758,0,0,0-7.5352-15.625l-20.5664-8.3438a29.0793,29.0793,0,0,1-17.66-22.1328l-3.586-21.9453a12.9744,12.9744,0,0,0-13.539-10.8047l-22.211,1.3672A28.96,28.96,0,0,1,319.1941,92.2L306.44,73.9807a12.8932,12.8932,0,0,0-16.9024-3.8515L270.1667,81.02a29.0931,29.0931,0,0,1-28.3242,0L222.4753,70.137a12.8731,12.8731,0,0,0-16.91,3.8515L192.823,92.1838a28.906,28.906,0,0,1-25.4648,12.2813l-22.211-1.375a12.9838,12.9838,0,0,0-13.539,10.8047l-3.586,21.9453a29.08,29.08,0,0,1-17.66,22.125l-20.5782,8.3516a12.8848,12.8848,0,0,0-7.5312,15.625l6.289,21.3046a29.11,29.11,0,0,1-6.2773,27.57L67.3308,247.34a12.8793,12.8793,0,0,0,0,17.3125l14.9258,16.5156a29.0927,29.0927,0,0,1,6.2812,27.57L82.2527,330.051a12.8718,12.8718,0,0,0,7.5312,15.6172L110.35,354.012a29.1178,29.1178,0,0,1,17.6641,22.1406l3.582,21.9375a12.9282,12.9282,0,0,0,13.5391,10.8047l22.2109-1.3672a28.8216,28.8216,0,0,1,25.4649,12.2656l12.75,18.2188a12.86,12.86,0,0,0,16.9062,3.8515l19.3711-10.8828A28.9347,28.9347,0,0,1,256.0027,427.301Z"/></g></svg>
